<?xml version="1.0" encoding="utf-8"?>
<!-- Generator: Adobe Illustrator 26.0.2, SVG Export Plug-In . SVG Version: 6.00 Build 0)  -->
<svg version="1.1" id="Layer_1" xmlns="http://www.w3.org/2000/svg" xmlns:xlink="http://www.w3.org/1999/xlink" x="0px" y="0px"
	 viewBox="0 0 1369 1369" style="enable-background:new 0 0 1369 1369;" xml:space="preserve">
<style type="text/css">
	.st0{fill:#7197AC;}
	.st1{fill:#467A86;}
</style>
<path class="st0" d="M1220,684c0,29.4-2.4,58.8-7.2,87.8C1170.9,1025.5,950.6,1219,685,1219c-103.1,0.2-204.1-29.6-290.6-85.8
	C256,1043.6,161.7,891.8,151,717.3c-0.7-11-1.1-22.1-1-33.3c0-130.1,47.4-255.7,133.3-353.3c12.1-13.8,24.9-26.9,38.3-39.3
	C420.4,199.7,550.2,148.8,685,149c7.6,0,15.3,0.2,22.9,0.6c137.8,5.9,267.9,64.8,363.3,164.4C1166.7,413.5,1220,546.1,1220,684
	L1220,684z"/>
<path class="st1" d="M1219.5,684c0,29.4-2.4,58.8-7.2,87.8c-9.6,8.2-16.5,16.2-18.6,22.6c-3.8,11.7-4.6,24.2-7.8,36.2
	c-3.3,12-9.6,23.9-20.7,29.3c-13,6.2-29.1,1.3-40-8.1c-10.9-9.4-17.7-22.5-24.3-35.4c-19.2-37.7-38.5-75.4-53.8-114.9
	c-7.8-19.9-14.7-40.6-27.9-57.3c-15.8-19.9-38.9-32.4-61.4-44.2c-46.6-24.6-95-49.7-147.5-53c-16.6-1-33.5,0.1-49.6-4.1
	c-16.6-4.4-31-14.1-45.2-23.7c-17.7-11.9-36.7-25.8-41.4-46.6c-3.9-17.2,4.6-36.7,20-45.1c15.5-8.4,36.8-4.7,48.1,8.9
	c9.6,11.5,11.3,27.3,16.6,41.3c5.2,13.9,17.7,28.1,32.4,25.5c15.3-2.8,21.6-20.9,32.8-31.7c14.6-14,37.1-14.8,57.3-13.4
	c20.2,1.4,41.6,3.9,59.4-5.7c17.8-9.6,26.9-37.2,11.4-50.1c-5.5,21.1-30.4,34.7-51,28.2c-20.7-6.6-33.1-32.1-25.4-52.4
	c8.2-21.8,32.7-31.9,54.7-39.7c40.6-14.4,81.2-28.8,121.7-43.1c53,49.9,95.2,110.2,124,177.1C1204.8,539.1,1219.6,611.1,1219.5,684z
	"/>
<path class="st1" d="M730.5,209.2c-6.2,11.4-19.2,17.7-31.9,20.5c-12.7,2.8-26,2.9-38.7,6.1c-38.6,9.5-67.3,49.7-63.5,89.3
	c0.8,9,2.2,20.1-5.3,25.2c-6.7,4.4-15.5,0.6-22.5-3.3c-23.9-13.2-48.4-26.9-65.2-48.4c-16.8-21.5-23.8-53-9.5-76.3
	c3.9-6.5,9.6-12.5,10.4-20c0.3-2.3-3.5-9.8-9.1-18.8c60.5-22.9,124.7-34.6,189.4-34.5c7.6,0,15.3,0.2,22.9,0.6
	c6.7,4.9,12.7,10.8,17.6,17.4C733.9,179.1,737.6,196,730.5,209.2z"/>
<path class="st1" d="M650,291.2c-1.4,5.5-1,11.2,0.9,16.5c2,5.3,5.5,9.9,10.1,13.1c10.6,7.2,25.4,6.1,36.3-0.7
	c4.9-3.1,9.1-7.1,12.4-11.8c3.3-4.7,5.6-10.1,6.8-15.7c-6.1,1.5-12.4,0.9-18.1-1.6c-5.7-2.5-10.4-6.8-13.4-12.3
	C675.6,261.1,654.3,275.2,650,291.2z"/>
<path class="st1" d="M417.9,286.2c-9.2,9.9-18.8,20.2-31,26.2c-12.2,6.1-27.8,7.1-38.8-1c-5.1-3.7-8.8-9.1-13.4-13.4
	c-3.7-3.5-8.6-6.4-13.7-6.6c27.8-25.8,58.3-48.5,90.9-67.8c9.6,14.5,18.1,29.8,18.9,35.7C432.5,269.4,425,278.6,417.9,286.2z"/>
<path class="st1" d="M450.6,496.7c-2.1,4.3-4.8,8.6-9.1,10.6c-8.1,3.7-17.6-2.6-22.3-10.2c-4.8-7.6-7.3-16.7-13.5-23.2
	c-6.2-6.5-18.5-8.7-23.3-1.1c-3.9,6.2-0.2,14.4,4.4,20c4.7,5.7,10.6,11.1,11.5,18.3c1.6,12.3-11.4,21.1-22.5,26.5l-60.9,30
	c-17.6,8.7-35.9,17.9-47.7,33.7c-8.4,11.3-12.8,25.2-19.7,37.6c-6.9,12.4-17.5,24.2-31.5,26.1c-1.1-19.7-34.1-35.4-63-41.8
	c12.2-108.5,57.6-210.7,129.9-292.5c18.8-2.2,36.9-2.6,43.7-0.6c14.9,4.6,27.5,14.3,39.8,23.8l34.9,27.1
	c20.2,15.7,41.3,32.6,51,56.3c3.8,9.5,5.6,19.6,5.4,29.8C457.3,477.4,454.9,487.4,450.6,496.7L450.6,496.7z"/>
<path class="st1" d="M484.7,1022.7c-16.9,14.1-45.6,16.8-51.9,37.9c-2.4,8.1-0.7,16.8-2.1,25c-3.2,18.8-21.4,30.4-34,44.5
	c-1,1.1-1.8,2.1-2.7,3.2c-138.4-89.6-232.7-241.4-243.4-416c10.8-3.6,20.3-5,25.9-1.9c19.5,10.6,31.4,30.9,43.5,49.5
	c12.1,18.6,27,37.8,48.6,43.4c11.3,3,23.3,1.8,34.9,2.2c11.7,0.3,24.2,2.4,32.7,10.6c8.5,8.2,10.4,23.7,1.3,31
	c14.9-1.6,28.7,9,36.7,21.7c8,12.7,11.7,27.4,17.9,41c6.2,13.6,16,26.9,30.4,31.2c13.3,4,27.7-0.6,41.4,1.6
	c8.1,1.3,15.8,4.8,21.9,10.3c6.2,5.5,10.6,12.6,12.8,20.5c2.2,7.9,2.1,16.3-0.4,24.2C495.7,1010.5,491,1017.5,484.7,1022.7
	L484.7,1022.7z"/>
<path class="st1" d="M596.7,761.7c16.7,11.6,36,18.4,54.7,26.4s37.4,17.6,50.4,33.1c24.7,29.5,23.2,72.8,14.8,110.3
	s-22.5,75.1-18.4,113.3c3.6,34.2,23.2,67.2,53.3,83.9c30.1,16.7,70.4,15,97.2-6.6c20.3-16.4,31.1-41.4,44.3-63.8
	c31.8-53.9,79.8-96.5,137.1-121.8c11-4.8,22.4-9.1,31.5-16.9c9-7.8,15.2-20.4,11.8-31.9c-3.4-11.5-15.5-18.5-27.2-21.7
	c-11.7-3.2-24.1-3.9-35.2-8.7c-28.9-12.6-39.2-48.5-40-79.9c-0.7-31.5,4.4-64.4-7.4-93.6C952,655.6,926.1,635.4,898,624
	c-28.1-11.4-58.7-15-88.8-18.5l-100.9-11.8c-9.3-1.1-19.3-2-27.5,2.6c-10.2,5.8-15,18-23.6,25.6c-8.6,7.7-19.3,12.3-29.6,16.9
	c-13.8,6.2-30,10.9-41.5,21.3C552.8,689.6,562.6,737.9,596.7,761.7z"/>
</svg>
