<?xml version="1.0" encoding="utf-8"?>
<!-- Generator: Adobe Illustrator 22.0.0, SVG Export Plug-In . SVG Version: 6.00 Build 0)  -->
<svg version="1.1" id="Layer_1" xmlns="http://www.w3.org/2000/svg" xmlns:xlink="http://www.w3.org/1999/xlink" x="0px" y="0px"
	 viewBox="0 0 73.9 18.6" style="enable-background:new 0 0 73.9 18.6;" xml:space="preserve">
<style type="text/css">
	.st0{fill:#231F20;}
</style>
<path class="st0" d="M6.6,18.2c-0.8,0-1.6-0.1-2.3-0.4s-1.4-0.7-1.9-1.2c-0.6-0.5-1-1.2-1.3-1.9c-0.2-0.4-0.3-0.9-0.4-1.4v-0.1h3.7
	l0,0c0.1,0.4,0.3,0.7,0.6,1c0.5,0.5,1.1,0.7,2,0.7c0.3,0,0.6,0,0.9-0.1c0.3-0.1,0.5-0.2,0.7-0.4c0.2-0.2,0.3-0.4,0.5-0.6
	C9,13.5,9,13.3,9,13s-0.1-0.6-0.2-0.8c-0.1-0.2-0.3-0.4-0.5-0.6c-0.2-0.2-0.5-0.3-0.7-0.4C7.3,11.1,7,11,6.8,10.9
	c-0.8-0.3-1.5-0.5-2.1-0.8C4,9.8,3.3,9.5,2.8,9.1s-1-0.9-1.3-1.5C1.2,7,1,6.2,1,5.4c0-0.7,0.2-1.4,0.5-2s0.7-1.1,1.2-1.5
	s1.1-0.8,1.8-1s1.4-0.3,2.1-0.3C7.5,0.6,8.2,0.7,9,1c1.5,0.5,2.6,1.5,3.1,2.8c0.2,0.5,0.2,0.8,0.3,1.3l0,0H8.8l0,0
	C8.6,4.6,8.4,4.3,8,4.1c-0.6-0.4-1.8-0.6-2.7,0C4.9,4.4,4.7,4.9,4.7,5.4c0,0.2,0,0.5,0.1,0.6C4.9,6.2,5,6.4,5.2,6.5
	c0.2,0.2,0.4,0.3,0.7,0.4C6.2,7,6.4,7.1,6.7,7.2C7.4,7.5,8,7.8,8.7,8c0.7,0.3,1.3,0.6,1.9,1c0.7,0.5,1.2,1,1.5,1.5
	c0.4,0.6,0.6,1.3,0.6,2.2s-0.2,1.7-0.5,2.4c-0.3,0.7-0.8,1.3-1.3,1.7c-0.5,0.4-1.2,0.8-2,1C8.2,18,7.4,18.2,6.6,18.2"/>
<polygon class="st0" points="32.3,14.6 32.3,17.8 20.8,17.8 20.8,0.9 32.3,0.9 32.3,4.1 24.4,4.1 24.4,7.7 29.6,7.7 29.6,10.9 
	24.4,10.9 24.4,14.6 "/>
<polygon class="st0" points="52.6,14.6 52.6,17.8 41.2,17.8 41.2,0.9 52.6,0.9 52.6,4.1 44.8,4.1 44.8,7.7 50,7.7 50,10.9 
	44.8,10.9 44.8,14.6 "/>
<path class="st0" d="M69.6,0.9v8.7L66.9,7l0,0l-6.1-6.1l0,0h-0.1l0,0v17h3.5V9.2l2.7,2.7l0,0l6,6.1l0,0H73l0,0V1h-3.4V0.9z"/>
</svg>
